<svg width="785" height="239" viewBox="0 0 785 239" fill="none" xmlns="http://www.w3.org/2000/svg">
<g clip-path="url(#clip0_4_955)">
<mask id="mask0_4_955" style="mask-type:luminance" maskUnits="userSpaceOnUse" x="395" y="206" width="19" height="16">
<path d="M395.191 221.279H413.833V206.784H395.191V221.279Z" fill="white"/>
</mask>
<g mask="url(#mask0_4_955)">
<path d="M395.248 212.744C396.191 212.294 397.786 211.287 399.288 210.516C400.791 209.745 402.221 209.229 403.583 208.961C404.946 208.694 406.246 208.674 407.295 208.862C408.344 209.051 409.077 209.376 409.637 209.813C410.194 210.251 410.607 210.808 410.901 211.52C411.194 212.232 411.359 213.125 411.235 213.911C411.107 214.697 410.667 215.568 410.13 216.3C409.588 217.032 408.927 217.631 408.134 218.114C407.337 218.597 406.393 218.961 405.427 219.157C404.461 219.354 403.698 219.35 403.167 219.203C402.636 219.056 402.282 218.795 402.028 218.351C401.774 217.906 401.628 217.215 401.642 216.639C401.657 216.064 401.798 215.69 402.019 215.349C402.239 215.008 402.548 214.692 402.957 214.401C403.365 214.11 403.878 213.848 404.314 213.686C404.75 213.523 405.043 213.458 405.299 213.422C405.555 213.386 405.78 213.386 405.972 213.416C406.164 213.447 406.329 213.506 406.483 213.599C406.637 213.693 406.754 213.804 406.833 213.932C406.915 214.059 406.953 214.211 406.946 214.393C406.942 214.574 406.878 214.781 406.784 214.935C406.69 215.088 406.69 215.088 406.754 214.986C406.754 214.986 406.878 214.781 406.979 214.594C407.081 214.406 407.134 214.214 407.122 214.017C407.111 213.819 407.04 213.621 406.904 213.434C406.773 213.247 406.596 213.082 406.37 212.955C406.149 212.829 405.885 212.746 405.585 212.702C405.288 212.657 404.961 212.649 404.585 212.686C404.212 212.724 403.524 212.894 402.915 213.141C402.307 213.389 401.78 213.717 401.343 214.127C400.905 214.537 400.563 215.024 400.323 215.627C400.083 216.231 400.042 217.334 400.253 218.272C400.464 219.211 400.962 219.988 401.729 220.509C402.496 221.031 403.455 221.272 404.577 221.275C405.697 221.278 406.991 221.009 408.141 220.556C409.295 220.103 410.314 219.461 411.179 218.632C412.047 217.803 412.754 216.802 413.295 215.533C413.833 214.264 413.709 212.778 413.37 211.655C413.032 210.531 412.483 209.568 411.724 208.801C410.964 208.035 410.013 207.495 408.904 207.171C407.795 206.848 406.261 206.784 404.735 207.019C403.212 207.254 401.697 207.779 400.199 208.59C398.702 209.401 397.227 210.495 396.594 211.254C395.192 212.679 396.016 212.077 395.248 212.744Z" fill="#9D783B" fill-opacity="0.478424"/>
</g>
<mask id="mask1_4_955" style="mask-type:luminance" maskUnits="userSpaceOnUse" x="363" y="206" width="20" height="16">
<path d="M363.688 221.279H382.33V206.784H363.688V221.279Z" fill="white"/>
</mask>
<g mask="url(#mask1_4_955)">
<path d="M382.274 212.744C381.331 212.294 379.736 211.287 378.234 210.516C376.731 209.745 375.301 209.229 373.939 208.961C372.577 208.694 371.274 208.674 370.226 208.862C369.179 209.051 368.444 209.376 367.885 209.813C367.327 210.251 366.914 210.808 366.62 211.52C366.327 212.232 366.162 213.125 366.288 213.911C366.413 214.697 366.853 215.568 367.393 216.3C367.932 217.032 368.594 217.631 369.389 218.114C370.185 218.597 371.13 218.961 372.096 219.157C373.061 219.354 373.824 219.35 374.355 219.203C374.886 219.056 375.24 218.795 375.494 218.351C375.748 217.906 375.894 217.215 375.88 216.639C375.865 216.064 375.724 215.69 375.503 215.349C375.283 215.008 374.974 214.692 374.565 214.401C374.157 214.11 373.643 213.848 373.207 213.686C372.771 213.523 372.48 213.458 372.224 213.422C371.967 213.386 371.744 213.386 371.552 213.416C371.36 213.447 371.193 213.506 371.04 213.599C370.887 213.693 370.767 213.804 370.688 213.932C370.608 214.059 370.57 214.211 370.576 214.393C370.581 214.574 370.645 214.781 370.738 214.935C370.831 215.088 370.831 215.088 370.769 214.986C370.769 214.986 370.645 214.781 370.543 214.594C370.442 214.406 370.39 214.214 370.4 214.017C370.41 213.819 370.482 213.621 370.616 213.434C370.75 213.247 370.926 213.082 371.15 212.955C371.375 212.829 371.638 212.746 371.935 212.702C372.232 212.657 372.563 212.649 372.936 212.686C373.309 212.724 373.998 212.894 374.607 213.141C375.215 213.389 375.742 213.717 376.179 214.127C376.617 214.537 376.959 215.024 377.199 215.627C377.439 216.231 377.48 217.334 377.269 218.272C377.058 219.211 376.56 219.988 375.793 220.509C375.026 221.031 374.067 221.272 372.946 221.275C371.825 221.278 370.533 221.009 369.381 220.556C368.229 220.103 367.209 219.461 366.342 218.632C365.475 217.803 364.768 216.802 364.228 215.533C363.688 214.264 363.814 212.778 364.152 211.655C364.489 210.531 365.039 209.568 365.799 208.801C366.559 208.035 367.507 207.495 368.617 207.171C369.728 206.848 371.26 206.784 372.785 207.019C374.31 207.254 375.825 207.779 377.323 208.59C378.82 209.401 380.295 210.495 380.928 211.254C382.33 212.679 381.506 212.077 382.274 212.744Z" fill="#9D783B" fill-opacity="0.478424"/>
</g>
<mask id="mask2_4_955" style="mask-type:luminance" maskUnits="userSpaceOnUse" x="391" y="214" width="59" height="13">
<path d="M391.248 226.839H449.1V214.73H391.248V226.839Z" fill="white"/>
</mask>
<g mask="url(#mask2_4_955)">
<path d="M391.279 222.523C391.581 222.506 392.11 222.394 392.58 222.308C393.05 222.221 393.463 222.164 393.819 222.144C394.175 222.124 394.471 222.139 394.677 222.165C394.884 222.192 395.019 222.214 395.163 222.245C395.308 222.276 395.463 222.316 395.626 222.364C395.79 222.412 395.963 222.467 396.361 222.631C396.76 222.795 397.347 223.038 397.831 223.231C398.315 223.425 398.696 223.572 398.98 223.675C399.263 223.777 399.468 223.838 399.632 223.883C399.796 223.928 400.068 224.002 400.365 224.074C400.661 224.146 400.982 224.216 401.327 224.288C401.672 224.359 402.043 224.429 402.543 224.508C403.043 224.588 403.668 224.656 404.321 224.697C404.971 224.738 405.652 224.753 406.359 224.735C407.065 224.717 407.802 224.674 408.464 224.611C409.126 224.549 409.742 224.465 410.419 224.352C411.099 224.238 411.84 224.095 412.648 223.919C413.453 223.743 414.325 223.535 416.242 222.964C418.156 222.392 420.78 221.581 423.032 220.902C425.287 220.222 427.171 219.674 428.679 219.259C430.19 218.844 431.321 218.562 432.46 218.313C433.6 218.064 434.882 217.806 436.013 217.614C437.141 217.422 438.122 217.295 438.942 217.231C439.765 217.168 440.419 217.166 440.991 217.214C441.562 217.261 442.096 217.345 442.585 217.47C443.07 217.595 443.513 217.758 443.916 217.959C444.322 218.161 444.686 218.399 445.07 218.735C445.457 219.071 445.84 219.475 446.111 219.822C446.382 220.169 446.54 220.443 446.604 220.621C446.664 220.799 446.668 220.875 446.637 221.064C446.604 221.252 446.57 221.339 446.453 221.507C446.337 221.674 446.111 221.905 445.777 222.179C445.438 222.452 444.995 222.763 444.48 223.066C443.964 223.37 443.446 223.63 442.904 223.852C442.367 224.073 441.81 224.26 441.231 224.41C440.652 224.559 440.051 224.669 439.532 224.729C439.013 224.789 438.596 224.794 438.205 224.753C437.814 224.713 437.442 224.626 437.085 224.494C436.727 224.362 436.385 224.181 436.145 223.995C435.904 223.809 435.72 223.57 435.618 223.364C435.513 223.156 435.476 222.974 435.491 222.784C435.502 222.593 435.577 222.37 435.746 222.107C435.915 221.843 436.167 221.568 436.506 221.302C436.84 221.037 437.265 220.789 437.776 220.558C438.284 220.326 438.882 220.114 439.494 219.946C440.107 219.779 440.652 219.676 441.149 219.632C441.645 219.589 442.096 219.598 442.506 219.669C442.919 219.74 443.299 219.876 443.543 220.049C443.788 220.221 443.788 220.221 443.626 220.101C443.626 220.101 443.322 219.846 442.964 219.606C442.611 219.366 442.182 219.186 441.679 219.076C441.175 218.965 440.611 218.923 439.979 218.952C439.352 218.98 438.626 219.092 437.968 219.254C437.314 219.417 436.724 219.628 436.201 219.891C435.682 220.155 435.227 220.475 434.848 220.855C434.472 221.234 434.194 221.65 434.028 222.106C433.863 222.561 433.825 223.045 433.919 223.526C434.017 224.006 434.227 224.463 434.566 224.915C434.9 225.367 435.397 225.741 435.87 226.006C436.344 226.27 436.848 226.472 437.382 226.61C437.912 226.748 438.464 226.821 439.04 226.83C439.615 226.839 440.333 226.781 441.028 226.673C441.728 226.566 442.408 226.41 443.073 226.205C443.735 226 444.382 225.748 445.01 225.447C445.634 225.147 446.258 224.792 446.795 224.43C447.333 224.069 447.78 223.684 448.141 223.267C448.506 222.85 448.773 222.381 448.901 221.922C449.028 221.464 449.1 221.034 449.021 220.464C448.942 219.893 448.724 219.362 448.401 218.856C448.077 218.349 447.656 217.848 447.134 217.329C446.607 216.809 446.096 216.414 445.558 216.09C445.017 215.767 444.438 215.504 443.822 215.3C443.201 215.097 442.551 214.952 441.87 214.863C441.19 214.776 440.491 214.73 439.652 214.756C438.81 214.781 437.848 214.874 436.75 215.032C435.652 215.19 434.423 215.413 433.058 215.7C431.69 215.986 430.761 216.191 429.46 216.529C428.16 216.866 426.498 217.332 424.475 217.929C422.453 218.525 420.066 219.252 417.317 220.107C414.569 220.962 413.716 221.202 412.9 221.423C412.08 221.643 411.332 221.832 410.656 221.99C409.975 222.149 409.366 222.275 408.829 222.368C408.291 222.462 407.588 222.561 406.915 222.634C406.242 222.706 405.599 222.75 404.983 222.77C404.366 222.791 403.781 222.789 403.221 222.759C402.66 222.728 402.296 222.69 401.945 222.65C401.595 222.61 401.271 222.57 400.973 222.527C400.675 222.485 400.405 222.439 400.151 222.392C399.896 222.346 399.803 222.335 399.628 222.297C399.454 222.258 399.15 222.178 398.732 222.06C398.314 221.943 397.784 221.788 397.136 221.599C396.488 221.41 396.252 221.359 396.054 221.322C395.856 221.285 395.664 221.261 395.482 221.243C395.299 221.225 395.125 221.215 394.961 221.212C394.797 221.21 394.471 221.218 394.094 221.277C393.717 221.337 393.312 221.449 392.875 221.61C392.437 221.771 391.969 221.988 391.743 222.162C391.247 222.443 391.548 222.416 391.279 222.523Z" fill="#9D783B" fill-opacity="0.478424"/>
</g>
<mask id="mask3_4_955" style="mask-type:luminance" maskUnits="userSpaceOnUse" x="328" y="214" width="59" height="13">
<path d="M328.421 226.839H386.274V214.73H328.421V226.839Z" fill="white"/>
</mask>
<g mask="url(#mask3_4_955)">
<path d="M386.242 222.523C385.94 222.506 385.411 222.394 384.941 222.308C384.471 222.221 384.058 222.164 383.702 222.144C383.346 222.124 383.05 222.139 382.844 222.165C382.637 222.192 382.502 222.214 382.358 222.245C382.213 222.276 382.058 222.316 381.895 222.364C381.731 222.412 381.558 222.467 381.16 222.631C380.761 222.795 380.174 223.038 379.69 223.231C379.206 223.425 378.825 223.572 378.541 223.675C378.258 223.777 378.053 223.838 377.889 223.883C377.725 223.928 377.453 224.002 377.156 224.074C376.86 224.146 376.539 224.216 376.194 224.288C375.849 224.359 375.478 224.429 374.978 224.508C374.478 224.588 373.853 224.656 373.201 224.697C372.549 224.738 371.87 224.753 371.162 224.735C370.455 224.717 369.721 224.674 369.058 224.611C368.395 224.549 367.78 224.465 367.102 224.352C366.423 224.238 365.681 224.095 364.874 223.919C364.067 223.743 363.195 223.535 361.279 222.964C359.364 222.392 356.741 221.581 354.488 220.902C352.235 220.222 350.352 219.674 348.842 219.259C347.332 218.844 346.201 218.562 345.061 218.313C343.921 218.064 342.641 217.806 341.509 217.614C340.378 217.422 339.399 217.295 338.578 217.231C337.756 217.168 337.1 217.166 336.529 217.214C335.957 217.261 335.425 217.345 334.937 217.47C334.45 217.595 334.007 217.758 333.604 217.959C333.201 218.161 332.835 218.399 332.45 218.735C332.065 219.071 331.679 219.475 331.408 219.822C331.138 220.169 330.981 220.443 330.919 220.621C330.857 220.799 330.853 220.875 330.884 221.064C330.916 221.252 330.949 221.339 331.066 221.507C331.183 221.674 331.408 221.905 331.745 222.179C332.082 222.452 332.527 222.763 333.042 223.066C333.557 223.37 334.077 223.63 334.615 223.852C335.154 224.073 335.711 224.26 336.29 224.41C336.868 224.559 337.469 224.669 337.989 224.729C338.509 224.789 338.924 224.794 339.316 224.753C339.708 224.713 340.08 224.626 340.437 224.494C340.793 224.362 341.138 224.181 341.377 223.995C341.617 223.809 341.801 223.57 341.904 223.364C342.006 223.156 342.046 222.974 342.032 222.784C342.019 222.593 341.943 222.37 341.775 222.107C341.606 221.843 341.353 221.568 341.017 221.302C340.681 221.037 340.257 220.789 339.746 220.558C339.236 220.326 338.639 220.114 338.026 219.946C337.413 219.779 336.868 219.676 336.373 219.632C335.877 219.589 335.426 219.598 335.014 219.669C334.601 219.74 334.22 219.876 333.978 220.049C333.735 220.221 333.735 220.221 333.893 220.101C333.893 220.101 334.201 219.846 334.555 219.606C334.909 219.366 335.34 219.186 335.842 219.076C336.345 218.965 336.911 218.923 337.54 218.952C338.169 218.98 338.897 219.092 339.552 219.254C340.207 219.417 340.796 219.628 341.318 219.891C341.84 220.155 342.294 220.475 342.672 220.855C343.051 221.234 343.326 221.65 343.491 222.106C343.656 222.561 343.697 223.045 343.601 223.526C343.506 224.006 343.294 224.463 342.957 224.915C342.62 225.367 342.124 225.741 341.65 226.006C341.177 226.27 340.672 226.472 340.141 226.61C339.61 226.748 339.056 226.821 338.481 226.83C337.906 226.839 337.189 226.781 336.492 226.673C335.794 226.566 335.113 226.41 334.449 226.205C333.785 226 333.138 225.748 332.512 225.447C331.886 225.147 331.263 224.792 330.726 224.43C330.189 224.069 329.742 223.684 329.379 223.267C329.016 222.85 328.747 222.381 328.619 221.922C328.491 221.464 328.421 221.034 328.5 220.464C328.578 219.893 328.797 219.362 329.122 218.856C329.445 218.349 329.865 217.848 330.389 217.329C330.913 216.809 331.423 216.414 331.963 216.09C332.502 215.767 333.082 215.504 333.7 215.3C334.318 215.097 334.971 214.952 335.651 214.863C336.332 214.776 337.03 214.73 337.87 214.756C338.711 214.781 339.675 214.874 340.771 215.032C341.867 215.19 343.098 215.413 344.464 215.7C345.83 215.986 346.761 216.191 348.062 216.529C349.363 216.866 351.022 217.332 353.045 217.929C355.068 218.525 357.456 219.252 360.204 220.107C362.951 220.962 363.804 221.202 364.622 221.423C365.439 221.643 366.188 221.832 366.867 221.99C367.545 222.149 368.154 222.275 368.691 222.368C369.228 222.462 369.932 222.561 370.605 222.634C371.278 222.706 371.923 222.75 372.538 222.77C373.153 222.791 373.74 222.789 374.3 222.759C374.861 222.728 375.225 222.69 375.576 222.65C375.926 222.61 376.25 222.57 376.548 222.527C376.846 222.485 377.116 222.439 377.37 222.392C377.625 222.346 377.718 222.335 377.893 222.297C378.067 222.258 378.371 222.178 378.789 222.06C379.207 221.943 379.737 221.788 380.385 221.599C381.033 221.41 381.269 221.359 381.467 221.322C381.665 221.285 381.857 221.261 382.039 221.243C382.222 221.225 382.396 221.215 382.56 221.212C382.724 221.21 383.05 221.218 383.427 221.277C383.804 221.337 384.209 221.449 384.646 221.61C385.084 221.771 385.552 221.988 385.778 222.162C386.274 222.443 385.973 222.416 386.242 222.523Z" fill="#9D783B" fill-opacity="0.478424"/>
</g>
<mask id="mask4_4_955" style="mask-type:luminance" maskUnits="userSpaceOnUse" x="416" y="208" width="61" height="16">
<path d="M416.374 223.313H476.856V208.186H416.374V223.313Z" fill="white"/>
</mask>
<g mask="url(#mask4_4_955)">
<path d="M416.408 222.219C417.776 221.966 420.107 221.125 422.096 220.387C424.085 219.651 425.75 219.049 427.089 218.599C428.431 218.15 429.442 217.858 430.529 217.585C431.611 217.313 432.905 217.011 434.141 216.772C435.378 216.534 436.562 216.36 437.694 216.242C438.826 216.125 439.905 216.059 440.893 216.046C441.886 216.033 442.773 216.056 443.634 216.123C444.495 216.19 445.33 216.3 446.134 216.452C446.939 216.605 447.717 216.8 448.42 217.006C449.123 217.211 449.875 217.467 450.863 217.854C451.848 218.241 453.067 218.758 454.506 219.404C455.946 220.05 457.612 220.824 458.751 221.349C459.886 221.873 460.273 222.024 460.642 222.159C461.006 222.295 461.352 222.415 461.679 222.52C462.01 222.625 462.319 222.715 462.819 222.838C463.318 222.96 464.01 223.095 464.687 223.183C465.364 223.271 466.025 223.313 466.676 223.307C467.322 223.3 467.954 223.246 469.138 222.971C470.322 222.696 471.834 222.137 473.086 221.397C474.338 220.656 475.311 219.716 475.947 218.573C476.578 217.431 476.856 216.142 476.717 214.793C476.574 213.444 476.101 212.348 475.379 211.427C474.657 210.506 473.71 209.785 472.571 209.262C471.431 208.74 470.108 208.414 468.92 208.3C467.728 208.186 466.916 208.223 466.21 208.35C465.507 208.478 464.909 208.694 464.431 209.02C463.95 209.346 463.616 209.787 463.544 210.452C463.473 211.117 463.683 211.682 464.022 212.158C464.36 212.633 464.822 213.007 465.394 213.274C465.965 213.541 466.638 213.698 467.179 213.817C467.717 213.936 467.717 213.936 467.367 213.833C467.367 213.833 466.687 213.559 466.157 213.216C465.627 212.873 465.228 212.516 464.961 212.135C464.694 211.754 464.533 211.349 464.48 210.947C464.424 210.546 464.555 210.411 464.792 210.221C465.033 210.032 465.386 209.889 465.871 209.803C466.356 209.717 466.977 209.698 467.71 209.753C468.443 209.807 469.713 210.102 470.747 210.509C471.785 210.916 472.586 211.424 473.176 212.026C473.766 212.627 474.172 213.329 474.401 214.123C474.635 214.918 474.559 215.827 474.266 216.63C473.977 217.433 473.469 218.121 472.702 218.742C471.935 219.363 470.868 219.901 469.48 220.336C468.097 220.771 467.68 220.825 467.168 220.855C466.657 220.886 466.123 220.878 465.567 220.83C465.007 220.783 464.428 220.694 463.819 220.563C463.21 220.432 462.976 220.369 462.702 220.287C462.431 220.205 462.134 220.107 461.815 219.993C461.491 219.879 461.146 219.749 460.803 219.613C460.458 219.478 458.649 218.619 457.04 217.879C455.427 217.138 454.036 216.523 452.856 216.032C451.675 215.542 450.702 215.175 449.942 214.934C449.183 214.693 448.356 214.45 447.476 214.247C446.596 214.044 445.69 213.89 444.762 213.785C443.833 213.679 442.878 213.622 441.908 213.612C440.935 213.602 439.807 213.625 438.619 213.723C437.431 213.822 436.205 214.006 434.938 214.266C433.675 214.526 432.371 214.861 431.04 215.269C429.705 215.676 428.863 215.929 427.705 216.374C426.547 216.819 425.107 217.441 423.382 218.257C421.656 219.072 419.645 220.089 418.626 220.834C416.374 222.141 417.637 221.657 416.408 222.219Z" fill="#9D783B" fill-opacity="0.478424"/>
</g>
<mask id="mask5_4_955" style="mask-type:luminance" maskUnits="userSpaceOnUse" x="300" y="208" width="62" height="16">
<path d="M300.665 223.313H361.149V208.186H300.665V223.313Z" fill="white"/>
</mask>
<g mask="url(#mask5_4_955)">
<path d="M361.114 222.219C359.744 221.966 357.416 221.125 355.427 220.387C353.437 219.651 351.773 219.049 350.432 218.599C349.091 218.15 348.08 217.858 346.995 217.585C345.909 217.313 344.619 217.011 343.382 216.772C342.145 216.534 340.96 216.36 339.829 216.242C338.697 216.125 337.618 216.059 336.627 216.046C335.636 216.033 334.747 216.056 333.887 216.123C333.027 216.19 332.194 216.3 331.389 216.452C330.584 216.605 329.806 216.8 329.102 217.006C328.397 217.211 327.648 217.467 326.66 217.854C325.672 218.241 324.456 218.758 323.015 219.404C321.574 220.05 319.911 220.824 318.772 221.349C317.634 221.873 317.248 222.024 316.882 222.159C316.515 222.295 316.169 222.415 315.841 222.52C315.513 222.625 315.203 222.715 314.703 222.838C314.203 222.96 313.511 223.095 312.835 223.183C312.158 223.271 311.495 223.313 310.847 223.307C310.2 223.3 309.568 223.246 308.383 222.971C307.198 222.696 305.687 222.137 304.436 221.397C303.185 220.656 302.212 219.716 301.577 218.573C300.942 217.431 300.666 216.142 300.806 214.793C300.946 213.444 301.423 212.348 302.144 211.427C302.865 210.506 303.813 209.785 304.953 209.262C306.092 208.74 307.414 208.414 308.603 208.3C309.792 208.186 310.608 208.223 311.312 208.35C312.016 208.478 312.612 208.694 313.092 209.02C313.571 209.346 313.907 209.787 313.979 210.452C314.051 211.117 313.84 211.682 313.5 212.158C313.161 212.633 312.699 213.007 312.128 213.274C311.558 213.541 310.884 213.698 310.344 213.817C309.804 213.936 309.804 213.936 310.156 213.833C310.156 213.833 310.837 213.559 311.366 213.216C311.895 212.873 312.292 212.516 312.561 212.135C312.829 211.754 312.988 211.349 313.043 210.947C313.098 210.546 312.968 210.411 312.729 210.221C312.488 210.032 312.137 209.889 311.652 209.803C311.166 209.717 310.545 209.698 309.812 209.753C309.078 209.807 307.809 210.102 306.774 210.509C305.739 210.916 304.936 211.424 304.347 212.026C303.757 212.627 303.351 213.329 303.119 214.123C302.887 214.918 302.963 215.827 303.255 216.63C303.547 217.433 304.054 218.121 304.82 218.742C305.586 219.363 306.653 219.901 308.04 220.336C309.427 220.771 309.842 220.825 310.354 220.855C310.865 220.886 311.4 220.878 311.957 220.83C312.514 220.783 313.095 220.694 313.705 220.563C314.314 220.432 314.547 220.369 314.818 220.287C315.09 220.205 315.387 220.107 315.708 219.993C316.03 219.879 316.375 219.749 316.719 219.613C317.063 219.478 318.874 218.619 320.484 217.879C322.093 217.138 323.486 216.523 324.667 216.032C325.848 215.542 326.821 215.175 327.579 214.934C328.338 214.693 329.166 214.45 330.045 214.247C330.926 214.044 331.83 213.89 332.76 213.785C333.689 213.679 334.643 213.622 335.615 213.612C336.587 213.602 337.716 213.625 338.903 213.723C340.091 213.822 341.317 214.006 342.582 214.266C343.847 214.526 345.151 214.861 346.483 215.269C347.815 215.676 348.66 215.929 349.818 216.374C350.976 216.819 352.416 217.441 354.142 218.257C355.867 219.072 357.876 220.089 358.898 220.834C361.15 222.141 359.884 221.657 361.114 222.219Z" fill="#9D783B" fill-opacity="0.478424"/>
</g>
<mask id="mask6_4_955" style="mask-type:luminance" maskUnits="userSpaceOnUse" x="390" y="198" width="9" height="24">
<path d="M390.039 221.539H398.779V198.809H390.039V221.539Z" fill="white"/>
</mask>
<g mask="url(#mask6_4_955)">
<path d="M393.925 221.539C394.455 221.38 395.301 220.861 395.98 220.265C396.659 219.668 397.17 219.001 397.512 218.274C397.854 217.546 398.017 216.763 398.023 216.256C398.03 215.749 397.99 215.542 397.924 215.337C397.857 215.133 397.767 214.929 397.654 214.723C397.542 214.517 397.409 214.307 396.931 213.771C396.453 213.234 395.793 212.521 395.251 211.906C394.71 211.29 394.289 210.777 393.993 210.373C393.698 209.969 393.54 209.691 393.332 209.241C393.125 208.792 392.87 208.194 392.684 207.648C392.499 207.102 392.376 206.613 392.299 206.185C392.222 205.758 392.196 205.387 392.211 205.043C392.225 204.699 392.259 204.402 392.32 204.107C392.381 203.812 392.468 203.518 392.582 203.223C392.698 202.928 392.842 202.633 393.02 202.323C393.199 202.014 393.387 201.735 393.576 201.501C393.764 201.268 393.951 201.077 394.137 200.929C394.323 200.78 394.507 200.668 394.695 200.589C394.882 200.51 395.044 200.465 395.21 200.448C395.377 200.432 395.553 200.446 395.748 200.492C395.942 200.538 396.154 200.625 396.362 200.744C396.571 200.863 396.768 201.014 396.93 201.173C397.093 201.332 397.225 201.5 397.327 201.68C397.43 201.859 397.506 202.054 397.55 202.224C397.593 202.393 397.61 202.525 397.61 202.669C397.609 202.814 397.59 202.971 397.551 203.142C397.511 203.313 397.449 203.498 397.365 203.7C397.28 203.901 397.184 204.093 397.086 204.254C396.987 204.414 396.892 204.546 396.799 204.65C396.705 204.755 396.613 204.832 396.477 204.889C396.341 204.947 396.145 204.968 395.967 204.923C395.789 204.877 395.611 204.746 395.434 204.511C395.258 204.276 395.092 203.935 395.018 203.618C394.945 203.303 394.945 203.303 394.986 203.515C394.986 203.515 395.046 203.945 395.117 204.311C395.189 204.676 395.328 204.971 395.546 205.186C395.765 205.401 396.058 205.517 396.399 205.521C396.74 205.524 396.957 205.44 397.128 205.338C397.3 205.235 397.466 205.101 397.624 204.938C397.782 204.774 397.933 204.582 398.084 204.362C398.236 204.143 398.366 203.917 398.47 203.688C398.574 203.46 398.653 203.229 398.705 202.996C398.756 202.764 398.779 202.529 398.769 202.294C398.76 202.059 398.71 201.74 398.61 201.424C398.51 201.107 398.36 200.807 398.169 200.525C397.977 200.242 397.742 199.981 397.461 199.736C397.18 199.491 396.852 199.284 396.525 199.135C396.197 198.987 395.857 198.888 395.508 198.849C395.158 198.809 394.806 198.827 394.465 198.906C394.124 198.984 393.783 199.111 393.446 199.294C393.109 199.477 392.79 199.709 392.489 199.986C392.189 200.263 391.907 200.585 391.642 200.945C391.378 201.305 391.145 201.666 390.94 202.046C390.737 202.425 390.566 202.816 390.431 203.217C390.297 203.618 390.202 204.03 390.141 204.442C390.08 204.855 390.039 205.37 390.072 205.952C390.104 206.535 390.243 207.136 390.454 207.758C390.664 208.381 390.949 209.025 391.291 209.689C391.634 210.352 391.808 210.677 392.119 211.102C392.429 211.528 392.851 212.005 393.386 212.553C393.92 213.101 394.573 213.726 395.341 214.417C396.108 215.109 396.185 215.201 396.292 215.342C396.398 215.482 396.48 215.609 396.539 215.718C396.598 215.827 396.636 215.917 396.655 215.97C396.674 216.023 396.713 216.666 396.614 217.266C396.515 217.867 396.268 218.477 395.862 219.104C395.455 219.73 394.888 220.378 394.599 220.778C393.877 221.468 394.359 221.25 393.925 221.539Z" fill="#9D783B" fill-opacity="0.478424"/>
</g>
<mask id="mask7_4_955" style="mask-type:luminance" maskUnits="userSpaceOnUse" x="378" y="198" width="10" height="24">
<path d="M378.743 221.539H387.483V198.809H378.743V221.539Z" fill="white"/>
</mask>
<g mask="url(#mask7_4_955)">
<path d="M383.597 221.539C383.067 221.38 382.221 220.861 381.542 220.265C380.863 219.668 380.351 219.001 380.01 218.274C379.668 217.546 379.505 216.763 379.498 216.256C379.492 215.749 379.532 215.542 379.598 215.337C379.665 215.133 379.755 214.929 379.868 214.723C379.98 214.517 380.113 214.307 380.591 213.771C381.069 213.234 381.729 212.521 382.271 211.906C382.812 211.29 383.233 210.777 383.529 210.373C383.824 209.969 383.982 209.691 384.19 209.241C384.397 208.792 384.652 208.194 384.838 207.648C385.023 207.102 385.146 206.613 385.223 206.185C385.3 205.758 385.326 205.387 385.311 205.043C385.297 204.699 385.263 204.402 385.202 204.107C385.141 203.812 385.054 203.518 384.94 203.223C384.824 202.928 384.68 202.633 384.502 202.323C384.323 202.014 384.135 201.735 383.946 201.501C383.758 201.268 383.571 201.077 383.385 200.929C383.199 200.78 383.015 200.668 382.827 200.589C382.64 200.51 382.478 200.465 382.312 200.448C382.145 200.432 381.969 200.446 381.774 200.492C381.58 200.538 381.368 200.625 381.16 200.744C380.951 200.863 380.754 201.014 380.592 201.173C380.429 201.332 380.297 201.5 380.195 201.68C380.092 201.859 380.016 202.054 379.972 202.224C379.929 202.393 379.912 202.525 379.912 202.669C379.912 202.814 379.932 202.971 379.971 203.142C380.011 203.313 380.073 203.498 380.157 203.7C380.242 203.901 380.338 204.093 380.436 204.254C380.535 204.414 380.63 204.546 380.723 204.65C380.817 204.755 380.908 204.832 381.045 204.889C381.181 204.947 381.377 204.968 381.555 204.923C381.733 204.877 381.911 204.746 382.088 204.511C382.264 204.276 382.43 203.935 382.504 203.618C382.577 203.303 382.577 203.303 382.536 203.515C382.536 203.515 382.476 203.945 382.404 204.311C382.333 204.676 382.194 204.971 381.976 205.186C381.757 205.401 381.464 205.517 381.123 205.521C380.782 205.524 380.565 205.44 380.394 205.338C380.222 205.235 380.056 205.101 379.898 204.938C379.74 204.774 379.589 204.582 379.438 204.362C379.286 204.143 379.156 203.917 379.052 203.688C378.948 203.46 378.869 203.229 378.817 202.996C378.766 202.764 378.743 202.529 378.753 202.294C378.762 202.059 378.812 201.74 378.912 201.424C379.012 201.107 379.162 200.807 379.353 200.525C379.545 200.242 379.78 199.981 380.061 199.736C380.342 199.491 380.67 199.284 380.997 199.135C381.325 198.987 381.665 198.888 382.014 198.849C382.364 198.809 382.716 198.827 383.057 198.906C383.398 198.984 383.739 199.111 384.076 199.294C384.413 199.477 384.732 199.709 385.033 199.986C385.333 200.263 385.615 200.585 385.88 200.945C386.144 201.305 386.377 201.666 386.582 202.046C386.785 202.425 386.956 202.816 387.09 203.217C387.225 203.618 387.32 204.03 387.381 204.442C387.442 204.855 387.483 205.37 387.45 205.952C387.418 206.535 387.279 207.136 387.068 207.758C386.858 208.381 386.573 209.025 386.231 209.689C385.888 210.352 385.714 210.677 385.403 211.102C385.093 211.528 384.671 212.005 384.136 212.553C383.602 213.101 382.949 213.726 382.181 214.417C381.414 215.109 381.337 215.201 381.23 215.342C381.124 215.482 381.042 215.609 380.983 215.718C380.924 215.827 380.886 215.917 380.867 215.97C380.848 216.023 380.809 216.666 380.908 217.266C381.007 217.867 381.254 218.477 381.66 219.104C382.067 219.73 382.634 220.378 382.923 220.778C383.645 221.468 383.163 221.25 383.597 221.539Z" fill="#9D783B" fill-opacity="0.478424"/>
</g>
<mask id="mask8_4_955" style="mask-type:luminance" maskUnits="userSpaceOnUse" x="385" y="196" width="9" height="30">
<path d="M385.917 225.315H393.36V196.406H385.917V225.315Z" fill="white"/>
</mask>
<g mask="url(#mask8_4_955)">
<path d="M389.927 225.315C390.346 225.127 391.002 224.586 391.54 223.968C392.079 223.35 392.498 222.663 392.798 221.917C393.097 221.171 393.275 220.372 393.317 219.731C393.359 219.09 393.328 218.678 393.26 218.269C393.193 217.861 393.09 217.458 392.951 217.061C392.811 216.665 392.635 216.278 392.491 215.987C392.348 215.697 392.158 215.372 391.892 214.988C391.627 214.605 391.281 214.147 390.849 213.61C390.417 213.073 389.893 212.461 389.597 212.105C389.301 211.75 389.208 211.639 389.128 211.53C389.048 211.421 388.976 211.317 388.912 211.219C388.848 211.121 388.792 211.028 388.699 210.832C388.606 210.636 388.452 210.271 388.315 209.907C388.177 209.543 388.051 209.182 387.943 208.821C387.835 208.461 387.741 208.102 387.623 207.496C387.504 206.89 387.42 205.97 387.443 204.923C387.465 203.877 387.597 202.706 387.824 201.407C388.051 200.107 388.347 198.669 388.66 197.538C388.972 196.407 388.972 196.407 388.702 197.139C388.702 197.139 387.976 198.54 387.421 199.876C386.867 201.212 386.484 202.48 386.248 203.67C386.012 204.86 385.916 205.971 385.963 206.989C386.009 208.007 386.074 208.432 386.151 208.844C386.228 209.256 386.322 209.671 386.434 210.087C386.547 210.503 386.679 210.92 386.831 211.343C386.982 211.765 387.073 211.953 387.145 212.09C387.218 212.226 387.297 212.365 387.383 212.506C387.469 212.647 387.562 212.791 387.69 212.972C387.817 213.152 388.444 213.783 388.957 214.32C389.469 214.858 389.886 215.313 390.205 215.682C390.524 216.052 390.743 216.328 390.868 216.526C390.993 216.724 391.195 217.048 391.351 217.345C391.508 217.641 391.639 217.944 391.743 218.256C391.847 218.568 391.924 218.89 391.973 219.203C392.023 219.516 392.018 220.229 391.915 220.912C391.812 221.596 391.607 222.26 391.3 222.913C390.992 223.566 390.578 224.215 390.385 224.59C389.87 225.251 390.249 225.029 389.927 225.315Z" fill="#9D783B" fill-opacity="0.478424"/>
</g>
<mask id="mask9_4_955" style="mask-type:luminance" maskUnits="userSpaceOnUse" x="384" y="196" width="8" height="30">
<path d="M384.162 225.315H391.605V196.406H384.162V225.315Z" fill="white"/>
</mask>
<g mask="url(#mask9_4_955)">
<path d="M387.594 225.315C387.175 225.127 386.519 224.586 385.981 223.968C385.442 223.35 385.023 222.663 384.723 221.917C384.424 221.171 384.246 220.372 384.204 219.731C384.162 219.09 384.193 218.678 384.261 218.269C384.328 217.861 384.431 217.458 384.57 217.061C384.71 216.665 384.886 216.278 385.03 215.987C385.173 215.697 385.363 215.372 385.629 214.988C385.894 214.605 386.24 214.147 386.672 213.61C387.104 213.073 387.628 212.461 387.924 212.105C388.22 211.75 388.313 211.639 388.393 211.53C388.473 211.421 388.545 211.317 388.609 211.219C388.673 211.121 388.729 211.028 388.822 210.832C388.915 210.636 389.069 210.271 389.206 209.907C389.344 209.543 389.47 209.182 389.578 208.821C389.686 208.461 389.78 208.102 389.898 207.496C390.017 206.89 390.101 205.97 390.078 204.923C390.056 203.877 389.924 202.706 389.697 201.407C389.47 200.107 389.174 198.669 388.861 197.538C388.549 196.407 388.549 196.407 388.819 197.139C388.819 197.139 389.545 198.54 390.1 199.876C390.654 201.212 391.037 202.48 391.273 203.67C391.509 204.86 391.605 205.971 391.558 206.989C391.512 208.007 391.447 208.432 391.37 208.844C391.293 209.256 391.199 209.671 391.087 210.087C390.974 210.503 390.842 210.92 390.69 211.343C390.539 211.765 390.448 211.953 390.376 212.09C390.303 212.226 390.224 212.365 390.138 212.506C390.052 212.647 389.959 212.791 389.831 212.972C389.704 213.152 389.077 213.783 388.564 214.32C388.052 214.858 387.635 215.313 387.316 215.682C386.997 216.052 386.778 216.328 386.653 216.526C386.528 216.724 386.326 217.048 386.17 217.345C386.013 217.641 385.882 217.944 385.778 218.256C385.674 218.568 385.597 218.89 385.548 219.203C385.498 219.516 385.503 220.229 385.606 220.912C385.709 221.596 385.914 222.26 386.221 222.913C386.529 223.566 386.943 224.215 387.136 224.59C387.651 225.251 387.272 225.029 387.594 225.315Z" fill="#9D783B" fill-opacity="0.478424"/>
</g>
<path d="M284.429 152.132L285 173.161C285.029 174.068 285.073 174.829 285.132 175.444C285.219 176.029 285.322 176.527 285.439 176.937C285.585 177.317 285.761 177.61 285.966 177.815C286.171 178.02 286.419 178.166 286.712 178.254C287.122 178.371 287.532 178.444 287.941 178.473C288.38 178.502 288.702 178.517 288.907 178.517C289.141 178.517 289.258 178.605 289.258 178.78C289.258 179.015 288.995 179.132 288.468 179.132C287.21 179.132 286.171 179.102 285.351 179.044C284.532 179.015 284.019 179 283.815 179C283.61 179 283.097 179.015 282.278 179.044C281.488 179.102 280.595 179.132 279.6 179.132C279.132 179.132 278.898 179.015 278.898 178.78C278.898 178.605 279.015 178.517 279.249 178.517C279.424 178.517 279.688 178.502 280.039 178.473C280.39 178.444 280.727 178.371 281.049 178.254C281.605 178.107 281.956 177.639 282.102 176.849C282.278 176.059 282.366 174.668 282.366 172.678L282.41 147.522C282.41 146.674 282.439 146.103 282.497 145.81C282.585 145.488 282.717 145.327 282.893 145.327C283.068 145.327 283.302 145.503 283.595 145.854C283.917 146.205 284.195 146.498 284.429 146.732C284.605 146.908 285.102 147.464 285.922 148.4C286.771 149.308 287.839 150.449 289.127 151.825C290.414 153.2 291.849 154.752 293.429 156.478C295.039 158.205 296.692 159.976 298.39 161.79C299.473 162.961 300.556 164.147 301.639 165.347C302.751 166.547 303.79 167.673 304.756 168.727C305.722 169.781 306.57 170.717 307.302 171.537C308.034 172.327 308.575 172.898 308.926 173.249L308.443 150.947C308.414 149.513 308.282 148.503 308.048 147.918C307.843 147.332 307.404 146.952 306.731 146.776C306.322 146.688 305.897 146.63 305.458 146.6C305.048 146.571 304.756 146.557 304.58 146.557C304.346 146.557 304.229 146.454 304.229 146.249C304.229 146.044 304.522 145.942 305.107 145.942C305.604 145.942 306.087 145.957 306.556 145.986C307.053 145.986 307.507 146 307.917 146.03C308.356 146.03 308.721 146.044 309.014 146.074C309.336 146.074 309.556 146.074 309.673 146.074C309.907 146.074 310.36 146.059 311.034 146.03C311.707 145.971 312.497 145.942 313.404 145.942C313.931 145.942 314.195 146.044 314.195 146.249C314.195 146.454 314.034 146.557 313.712 146.557C313.595 146.557 313.448 146.571 313.273 146.6C313.126 146.6 312.921 146.63 312.658 146.688C311.926 146.835 311.473 147.2 311.297 147.786C311.121 148.342 311.034 149.278 311.034 150.596L310.946 176.322C310.946 177.054 310.931 177.624 310.902 178.034C310.902 178.444 310.887 178.751 310.858 178.956C310.829 179.161 310.785 179.293 310.726 179.351C310.697 179.41 310.639 179.439 310.551 179.439C310.463 179.439 310.346 179.395 310.2 179.307C310.082 179.249 309.907 179.117 309.673 178.912C309.439 178.707 309.131 178.429 308.751 178.078C308.4 177.698 307.931 177.215 307.346 176.629C307.229 176.512 306.775 176.073 305.985 175.312C305.224 174.522 304.287 173.556 303.175 172.415C302.063 171.244 300.863 169.985 299.575 168.639C298.287 167.293 297.058 165.99 295.888 164.732C294.6 163.356 293.341 162.01 292.112 160.693C290.912 159.347 289.8 158.103 288.775 156.961C287.751 155.82 286.858 154.839 286.097 154.02C285.336 153.171 284.78 152.542 284.429 152.132ZM321.757 174.303L331.723 147.039C331.986 146.308 332.177 145.84 332.294 145.635C332.411 145.43 332.543 145.327 332.689 145.327C332.835 145.327 332.967 145.43 333.084 145.635C333.201 145.81 333.391 146.235 333.655 146.908C333.772 147.2 334.035 147.903 334.445 149.015C334.884 150.098 335.396 151.444 335.982 153.054C336.596 154.635 337.269 156.376 338.001 158.278C338.733 160.181 339.45 162.069 340.152 163.942C340.884 165.786 341.572 167.542 342.216 169.21C342.889 170.878 343.445 172.268 343.884 173.381C344.264 174.346 344.63 175.137 344.981 175.751C345.362 176.366 345.698 176.849 345.991 177.2C346.313 177.551 346.606 177.8 346.869 177.946C347.162 178.093 347.425 178.195 347.659 178.254C347.981 178.371 348.289 178.444 348.581 178.473C348.903 178.502 349.181 178.517 349.415 178.517C349.708 178.517 349.854 178.605 349.854 178.78C349.854 178.927 349.767 179.015 349.591 179.044C349.415 179.102 349.211 179.132 348.976 179.132C348.801 179.132 348.479 179.132 348.011 179.132C347.572 179.132 347.03 179.132 346.386 179.132C345.772 179.132 345.084 179.117 344.323 179.088C343.591 179.088 342.845 179.073 342.084 179.044C341.674 179.015 341.352 179 341.118 179C340.884 178.971 340.767 178.883 340.767 178.737C340.767 178.59 340.869 178.488 341.074 178.429C341.22 178.371 341.338 178.254 341.425 178.078C341.513 177.873 341.484 177.595 341.338 177.244L337.255 166.444C337.167 166.268 337.035 166.181 336.86 166.181H327.421C327.216 166.181 327.069 166.298 326.982 166.532L324.348 174.303C323.938 175.444 323.733 176.424 323.733 177.244C323.733 177.683 323.909 178.005 324.26 178.21C324.64 178.415 325.021 178.517 325.401 178.517H325.84C326.133 178.517 326.279 178.605 326.279 178.78C326.279 179.015 326.06 179.132 325.621 179.132C325.357 179.132 325.05 179.117 324.699 179.088C324.348 179.088 324.011 179.073 323.689 179.044C323.367 179.044 323.06 179.029 322.767 179C322.504 179 322.313 179 322.196 179C322.079 179 321.845 179 321.494 179C321.172 179.029 320.777 179.044 320.309 179.044C319.84 179.073 319.343 179.088 318.816 179.088C318.289 179.117 317.762 179.132 317.235 179.132C316.679 179.132 316.401 179.015 316.401 178.78C316.401 178.605 316.533 178.517 316.796 178.517C316.943 178.517 317.148 178.517 317.411 178.517C317.674 178.488 317.894 178.459 318.07 178.429C319.094 178.283 319.855 177.844 320.352 177.112C320.879 176.351 321.348 175.415 321.757 174.303ZM327.904 164.6H336.289C336.464 164.6 336.523 164.498 336.464 164.293L332.294 152.439C332.06 151.796 331.84 151.796 331.635 152.439L327.772 164.293C327.684 164.498 327.728 164.6 327.904 164.6ZM362.405 147.83V166.4C362.405 168.507 362.405 170.395 362.405 172.064C362.435 173.703 362.508 174.99 362.625 175.927C362.683 176.571 362.815 177.112 363.02 177.551C363.225 177.99 363.664 178.254 364.337 178.341C364.659 178.4 365.01 178.444 365.391 178.473C365.8 178.502 366.108 178.517 366.313 178.517C366.547 178.517 366.664 178.605 366.664 178.78C366.664 179.015 366.43 179.132 365.961 179.132C365.347 179.132 364.732 179.117 364.117 179.088C363.503 179.088 362.932 179.073 362.405 179.044C361.908 179.044 361.483 179.029 361.132 179C360.81 179 360.62 179 360.561 179C360.503 179 360.298 179 359.947 179C359.625 179.029 359.244 179.044 358.805 179.044C358.366 179.073 357.913 179.088 357.444 179.088C356.976 179.117 356.581 179.132 356.259 179.132C355.791 179.132 355.557 179.015 355.557 178.78C355.557 178.605 355.674 178.517 355.908 178.517C356.113 178.517 356.332 178.502 356.566 178.473C356.8 178.444 357.02 178.4 357.225 178.341C357.664 178.254 357.957 177.99 358.103 177.551C358.278 177.112 358.41 176.571 358.498 175.927C358.615 174.99 358.674 173.703 358.674 172.064C358.703 170.395 358.718 168.507 358.718 166.4V147.83L352.22 147.918C351.547 147.918 350.962 147.947 350.464 148.005C349.996 148.064 349.586 148.152 349.235 148.269C348.884 148.357 348.591 148.488 348.357 148.664C348.123 148.839 347.918 149.059 347.742 149.322C347.508 149.703 347.332 149.996 347.215 150.2C347.127 150.376 347.054 150.537 346.996 150.683C346.879 150.976 346.732 151.122 346.557 151.122C346.41 151.122 346.337 150.991 346.337 150.727C346.337 150.61 346.381 150.332 346.469 149.893C346.557 149.425 346.659 148.927 346.776 148.4C346.893 147.874 346.996 147.391 347.084 146.952C347.201 146.513 347.274 146.249 347.303 146.161C347.362 146.015 347.42 145.84 347.479 145.635C347.566 145.43 347.654 145.327 347.742 145.327C347.888 145.327 348.093 145.4 348.357 145.547C348.649 145.693 349.088 145.796 349.674 145.854C350.318 145.913 350.991 145.971 351.693 146.03C352.396 146.059 352.879 146.074 353.142 146.074H369.605C370.308 146.074 370.908 146.059 371.405 146.03C371.932 145.971 372.371 145.913 372.722 145.854C373.044 145.796 373.308 145.752 373.512 145.722C373.717 145.664 373.864 145.635 373.951 145.635C374.069 145.635 374.127 145.693 374.127 145.81C374.156 145.898 374.171 146.015 374.171 146.161C374.171 146.483 374.156 146.893 374.127 147.391C374.127 147.888 374.112 148.386 374.083 148.883C374.083 149.381 374.069 149.835 374.039 150.244C374.039 150.625 374.039 150.874 374.039 150.991C374.039 151.371 373.937 151.561 373.732 151.561C373.615 151.561 373.527 151.517 373.469 151.43C373.439 151.342 373.41 151.137 373.381 150.815L373.337 150.332C373.308 150.01 373.205 149.703 373.029 149.41C372.854 149.118 372.561 148.869 372.151 148.664C371.771 148.459 371.23 148.298 370.527 148.181C369.854 148.035 368.991 147.947 367.937 147.918L362.405 147.83ZM380.862 165.083V158.673C380.862 156.976 380.862 155.586 380.862 154.503C380.862 153.42 380.862 152.556 380.862 151.913C380.862 151.239 380.847 150.713 380.818 150.332C380.818 149.922 380.803 149.542 380.774 149.191C380.716 148.43 380.569 147.859 380.335 147.479C380.101 147.098 379.618 146.835 378.886 146.688C378.711 146.63 378.462 146.6 378.14 146.6C377.847 146.571 377.598 146.557 377.394 146.557C377.159 146.557 377.042 146.469 377.042 146.293C377.042 146.059 377.277 145.942 377.745 145.942C378.242 145.942 378.755 145.957 379.281 145.986C379.837 145.986 380.35 146 380.818 146.03C381.315 146.03 381.74 146.044 382.091 146.074C382.472 146.074 382.706 146.074 382.794 146.074C382.881 146.074 383.101 146.074 383.452 146.074C383.803 146.044 384.198 146.03 384.637 146.03C385.076 146 385.515 145.986 385.954 145.986C386.423 145.957 386.818 145.942 387.14 145.942C387.608 145.942 387.842 146.059 387.842 146.293C387.842 146.469 387.725 146.557 387.491 146.557C387.345 146.557 387.184 146.571 387.008 146.6C386.862 146.6 386.657 146.63 386.393 146.688C385.808 146.776 385.398 147.025 385.164 147.435C384.959 147.844 384.828 148.43 384.769 149.191C384.74 149.542 384.711 149.922 384.681 150.332C384.681 150.713 384.681 151.239 384.681 151.913C384.681 152.556 384.681 153.42 384.681 154.503C384.681 155.586 384.681 156.976 384.681 158.673V164.82C384.681 166.4 384.754 167.776 384.901 168.946C385.076 170.088 385.311 171.083 385.603 171.932C385.896 172.781 386.247 173.512 386.657 174.127C387.067 174.712 387.506 175.224 387.974 175.663C389.057 176.688 390.11 177.346 391.135 177.639C392.189 177.932 393.345 178.078 394.603 178.078C395.949 178.078 397.237 177.785 398.466 177.2C399.696 176.615 400.705 175.854 401.496 174.917C402.52 173.659 403.193 172.122 403.515 170.307C403.866 168.493 404.042 166.444 404.042 164.161V158.673C404.042 156.976 404.042 155.586 404.042 154.503C404.042 153.42 404.042 152.556 404.042 151.913C404.042 151.239 404.027 150.713 403.998 150.332C403.998 149.922 403.983 149.542 403.954 149.191C403.896 148.43 403.749 147.859 403.515 147.479C403.281 147.098 402.798 146.835 402.066 146.688C401.891 146.63 401.642 146.6 401.32 146.6C401.027 146.571 400.779 146.557 400.574 146.557C400.34 146.557 400.223 146.469 400.223 146.293C400.223 146.059 400.457 145.942 400.925 145.942C401.423 145.942 401.935 145.957 402.462 145.986C402.988 145.986 403.471 146 403.91 146.03C404.349 146.03 404.715 146.044 405.008 146.074C405.33 146.074 405.52 146.074 405.579 146.074C405.666 146.074 405.842 146.074 406.105 146.074C406.369 146.044 406.676 146.03 407.027 146.03C407.408 146 407.788 145.986 408.169 145.986C408.579 145.957 408.944 145.942 409.266 145.942C409.735 145.942 409.969 146.059 409.969 146.293C409.969 146.469 409.852 146.557 409.618 146.557C409.471 146.557 409.31 146.571 409.135 146.6C408.988 146.6 408.783 146.63 408.52 146.688C407.935 146.835 407.525 147.098 407.291 147.479C407.086 147.859 406.954 148.43 406.896 149.191C406.866 149.542 406.837 149.922 406.808 150.332C406.808 150.713 406.808 151.239 406.808 151.913C406.808 152.556 406.808 153.42 406.808 154.503C406.808 155.586 406.808 156.976 406.808 158.673V163.371C406.808 164.571 406.764 165.786 406.676 167.015C406.588 168.215 406.398 169.4 406.105 170.571C405.813 171.712 405.403 172.795 404.876 173.82C404.349 174.815 403.647 175.707 402.769 176.498C401.979 177.2 401.174 177.771 400.354 178.21C399.564 178.62 398.788 178.941 398.027 179.176C397.266 179.41 396.52 179.556 395.788 179.615C395.057 179.702 394.369 179.746 393.725 179.746C393.345 179.746 392.803 179.717 392.101 179.659C391.428 179.629 390.667 179.512 389.818 179.307C388.969 179.102 388.091 178.795 387.184 178.385C386.306 177.946 385.472 177.361 384.681 176.629C384.154 176.102 383.657 175.517 383.189 174.873C382.72 174.2 382.311 173.41 381.959 172.503C381.608 171.566 381.33 170.498 381.125 169.298C380.95 168.098 380.862 166.693 380.862 165.083ZM419.85 166.4V158.673C419.85 156.976 419.85 155.586 419.85 154.503C419.85 153.42 419.85 152.556 419.85 151.913C419.85 151.239 419.835 150.713 419.806 150.332C419.806 149.922 419.792 149.542 419.762 149.191C419.704 148.43 419.557 147.859 419.323 147.479C419.089 147.098 418.606 146.835 417.874 146.688C417.699 146.63 417.45 146.6 417.128 146.6C416.835 146.571 416.587 146.557 416.382 146.557C416.148 146.557 416.031 146.469 416.031 146.293C416.031 146.059 416.265 145.942 416.733 145.942C417.231 145.942 417.757 145.957 418.314 145.986C418.87 145.986 419.382 146 419.85 146.03C420.348 146.03 420.757 146.044 421.079 146.074C421.431 146.074 421.635 146.074 421.694 146.074C421.811 146.074 422.074 146.074 422.484 146.074C422.923 146.044 423.406 146.03 423.933 146.03C424.489 146 425.03 145.986 425.557 145.986C426.084 145.957 426.523 145.942 426.874 145.942C428.279 145.942 429.669 146.059 431.045 146.293C432.45 146.498 433.738 147.025 434.908 147.874C435.172 148.078 435.479 148.371 435.83 148.752C436.182 149.103 436.503 149.527 436.796 150.025C437.118 150.522 437.382 151.093 437.586 151.737C437.821 152.381 437.938 153.083 437.938 153.844C437.938 155.483 437.542 157.137 436.752 158.805C435.962 160.444 434.586 162.171 432.625 163.986C434.44 166.298 436.094 168.405 437.586 170.307C439.079 172.21 440.469 173.849 441.757 175.224C442.957 176.483 444.011 177.302 444.918 177.683C445.825 178.063 446.557 178.298 447.113 178.385C447.523 178.444 447.874 178.488 448.167 178.517C448.459 178.517 448.679 178.517 448.825 178.517C449.089 178.517 449.22 178.605 449.22 178.78C449.22 178.927 449.147 179.015 449.001 179.044C448.855 179.102 448.576 179.132 448.167 179.132H445.05C443.82 179.132 442.869 179.073 442.196 178.956C441.523 178.839 440.908 178.62 440.352 178.298C439.416 177.8 438.508 177.024 437.63 175.971C436.752 174.888 435.684 173.512 434.425 171.844C433.957 171.229 433.489 170.6 433.021 169.956C432.552 169.312 432.099 168.698 431.66 168.112C431.25 167.527 430.855 167 430.474 166.532C430.123 166.034 429.845 165.639 429.64 165.347C429.465 165.171 429.274 165.083 429.069 165.083L423.67 164.995C423.465 164.995 423.362 165.112 423.362 165.347V166.4C423.362 168.507 423.362 170.395 423.362 172.064C423.391 173.703 423.465 174.99 423.582 175.927C423.64 176.571 423.772 177.112 423.977 177.551C424.182 177.99 424.621 178.254 425.294 178.341C425.616 178.4 425.967 178.444 426.348 178.473C426.757 178.502 427.065 178.517 427.269 178.517C427.504 178.517 427.621 178.605 427.621 178.78C427.621 179.015 427.387 179.132 426.918 179.132C426.304 179.132 425.689 179.117 425.074 179.088C424.46 179.088 423.889 179.073 423.362 179.044C422.865 179.044 422.44 179.029 422.089 179C421.767 179 421.577 179 421.518 179C421.518 179 421.357 179 421.035 179C420.743 179.029 420.377 179.044 419.938 179.044C419.499 179.073 419.045 179.088 418.577 179.088C418.109 179.117 417.714 179.132 417.392 179.132C416.923 179.132 416.689 179.015 416.689 178.78C416.689 178.605 416.806 178.517 417.04 178.517C417.245 178.517 417.465 178.502 417.699 178.473C417.933 178.444 418.153 178.4 418.357 178.341C418.796 178.254 419.089 177.99 419.235 177.551C419.411 177.112 419.543 176.571 419.631 175.927C419.748 174.99 419.806 173.703 419.806 172.064C419.835 170.395 419.85 168.507 419.85 166.4ZM423.362 148.137V162.493C423.362 162.727 423.465 162.903 423.67 163.02C423.991 163.225 424.591 163.4 425.47 163.547C426.377 163.664 427.313 163.722 428.279 163.722C428.806 163.722 429.362 163.678 429.947 163.59C430.533 163.473 431.074 163.239 431.572 162.888C432.333 162.361 432.962 161.527 433.46 160.386C433.986 159.215 434.25 157.795 434.25 156.127C434.25 153.376 433.577 151.225 432.23 149.674C430.884 148.122 429.026 147.347 426.655 147.347C425.982 147.347 425.382 147.376 424.855 147.435C424.328 147.493 423.948 147.552 423.713 147.61C423.479 147.698 423.362 147.874 423.362 148.137ZM449.518 174.303L459.484 147.039C459.748 146.308 459.938 145.84 460.055 145.635C460.172 145.43 460.304 145.327 460.45 145.327C460.596 145.327 460.728 145.43 460.845 145.635C460.962 145.81 461.152 146.235 461.416 146.908C461.533 147.2 461.796 147.903 462.206 149.015C462.645 150.098 463.157 151.444 463.743 153.054C464.357 154.635 465.03 156.376 465.762 158.278C466.494 160.181 467.211 162.069 467.913 163.942C468.645 165.786 469.333 167.542 469.977 169.21C470.65 170.878 471.206 172.268 471.645 173.381C472.025 174.346 472.391 175.137 472.742 175.751C473.123 176.366 473.46 176.849 473.752 177.2C474.074 177.551 474.367 177.8 474.63 177.946C474.923 178.093 475.186 178.195 475.42 178.254C475.742 178.371 476.05 178.444 476.342 178.473C476.664 178.502 476.942 178.517 477.177 178.517C477.469 178.517 477.616 178.605 477.616 178.78C477.616 178.927 477.528 179.015 477.352 179.044C477.177 179.102 476.972 179.132 476.738 179.132C476.562 179.132 476.24 179.132 475.772 179.132C475.333 179.132 474.791 179.132 474.147 179.132C473.533 179.132 472.845 179.117 472.084 179.088C471.352 179.088 470.606 179.073 469.845 179.044C469.435 179.015 469.113 179 468.879 179C468.645 178.971 468.528 178.883 468.528 178.737C468.528 178.59 468.63 178.488 468.835 178.429C468.982 178.371 469.099 178.254 469.186 178.078C469.274 177.873 469.245 177.595 469.099 177.244L465.016 166.444C464.928 166.268 464.796 166.181 464.621 166.181H455.182C454.977 166.181 454.831 166.298 454.743 166.532L452.109 174.303C451.699 175.444 451.494 176.424 451.494 177.244C451.494 177.683 451.67 178.005 452.021 178.21C452.401 178.415 452.782 178.517 453.162 178.517H453.601C453.894 178.517 454.04 178.605 454.04 178.78C454.04 179.015 453.821 179.132 453.382 179.132C453.118 179.132 452.811 179.117 452.46 179.088C452.109 179.088 451.772 179.073 451.45 179.044C451.128 179.044 450.821 179.029 450.528 179C450.265 179 450.075 179 449.957 179C449.84 179 449.606 179 449.255 179C448.933 179.029 448.538 179.044 448.07 179.044C447.601 179.073 447.104 179.088 446.577 179.088C446.05 179.117 445.523 179.132 444.997 179.132C444.44 179.132 444.162 179.015 444.162 178.78C444.162 178.605 444.294 178.517 444.558 178.517C444.704 178.517 444.909 178.517 445.172 178.517C445.436 178.488 445.655 178.459 445.831 178.429C446.855 178.283 447.616 177.844 448.114 177.112C448.64 176.351 449.109 175.415 449.518 174.303ZM455.665 164.6H464.05C464.226 164.6 464.284 164.498 464.226 164.293L460.055 152.439C459.821 151.796 459.601 151.796 459.396 152.439L455.533 164.293C455.445 164.498 455.489 164.6 455.665 164.6ZM487.59 158.673V166.488C487.59 169.707 487.648 172.093 487.765 173.644C487.883 175.195 488.146 176.161 488.556 176.541C488.731 176.717 488.936 176.878 489.17 177.024C489.434 177.141 489.756 177.244 490.136 177.332C490.546 177.39 491.043 177.449 491.629 177.507C492.243 177.537 492.975 177.551 493.824 177.551C494.995 177.551 496.034 177.493 496.941 177.376C497.878 177.259 498.609 176.878 499.136 176.234C499.429 175.883 499.677 175.459 499.882 174.961C500.087 174.463 500.219 174.01 500.277 173.6C500.336 173.22 500.468 173.029 500.673 173.029C500.848 173.029 500.936 173.249 500.936 173.688C500.936 173.805 500.921 174.039 500.892 174.39C500.863 174.742 500.804 175.137 500.716 175.576C500.658 176.015 500.585 176.468 500.497 176.937C500.438 177.376 500.365 177.756 500.277 178.078C500.19 178.341 500.102 178.546 500.014 178.693C499.956 178.839 499.838 178.956 499.663 179.044C499.487 179.132 499.224 179.19 498.873 179.22C498.551 179.249 498.097 179.263 497.512 179.263C495.931 179.263 494.556 179.249 493.385 179.22C492.214 179.19 491.161 179.161 490.224 179.132C489.287 179.073 488.468 179.029 487.765 179C487.063 179 486.39 179 485.746 179C485.658 179 485.439 179 485.087 179C484.766 179.029 484.385 179.044 483.946 179.044C483.507 179.073 483.053 179.088 482.585 179.088C482.146 179.117 481.766 179.132 481.444 179.132C480.975 179.132 480.741 179.015 480.741 178.78C480.741 178.605 480.858 178.517 481.092 178.517C481.297 178.517 481.517 178.502 481.751 178.473C481.985 178.444 482.205 178.4 482.409 178.341C482.848 178.254 483.141 177.99 483.287 177.551C483.463 177.112 483.595 176.571 483.683 175.927C483.8 174.99 483.858 173.703 483.858 172.064C483.887 170.395 483.902 168.507 483.902 166.4V158.673C483.902 156.976 483.902 155.586 483.902 154.503C483.902 153.42 483.902 152.556 483.902 151.913C483.902 151.239 483.887 150.713 483.858 150.332C483.858 149.922 483.844 149.542 483.814 149.191C483.756 148.43 483.609 147.859 483.375 147.479C483.141 147.098 482.658 146.835 481.927 146.688C481.751 146.63 481.502 146.6 481.18 146.6C480.888 146.571 480.639 146.557 480.434 146.557C480.2 146.557 480.083 146.469 480.083 146.293C480.083 146.059 480.317 145.942 480.785 145.942C481.283 145.942 481.809 145.957 482.366 145.986C482.922 145.986 483.434 146 483.902 146.03C484.4 146.03 484.809 146.044 485.131 146.074C485.483 146.074 485.687 146.074 485.746 146.074C485.805 146.074 486.024 146.074 486.405 146.074C486.785 146.044 487.224 146.03 487.722 146.03C488.219 146 488.717 145.986 489.214 145.986C489.741 145.957 490.165 145.942 490.487 145.942C490.956 145.942 491.19 146.059 491.19 146.293C491.19 146.469 491.073 146.557 490.839 146.557C490.692 146.557 490.473 146.571 490.18 146.6C489.917 146.6 489.653 146.63 489.39 146.688C488.746 146.805 488.307 147.069 488.073 147.479C487.868 147.859 487.736 148.43 487.678 149.191C487.648 149.542 487.619 149.922 487.59 150.332C487.59 150.713 487.59 151.239 487.59 151.913C487.59 152.556 487.59 153.42 487.59 154.503C487.59 155.586 487.59 156.976 487.59 158.673ZM512.956 179.746C511.932 179.746 510.922 179.659 509.927 179.483C508.932 179.307 507.981 179 507.073 178.561C506.751 178.415 506.561 178.254 506.503 178.078C506.444 177.873 506.415 177.478 506.415 176.893C506.415 175.781 506.444 174.815 506.503 173.995C506.561 173.176 506.605 172.59 506.634 172.239C506.664 171.771 506.781 171.537 506.986 171.537C507.19 171.537 507.293 171.698 507.293 172.02C507.293 172.224 507.293 172.473 507.293 172.766C507.322 173.029 507.366 173.322 507.425 173.644C507.6 174.463 507.893 175.166 508.303 175.751C508.712 176.307 509.21 176.761 509.795 177.112C510.41 177.463 511.068 177.727 511.771 177.902C512.473 178.049 513.19 178.122 513.922 178.122C514.976 178.122 515.898 177.946 516.688 177.595C517.478 177.244 518.122 176.805 518.62 176.278C519.146 175.722 519.541 175.093 519.805 174.39C520.068 173.688 520.2 172.985 520.2 172.283C520.2 171.522 520.112 170.834 519.937 170.22C519.761 169.576 519.468 168.961 519.059 168.376C518.678 167.761 518.166 167.147 517.522 166.532C516.878 165.888 516.088 165.171 515.151 164.381L513.176 162.756C512.005 161.79 511.054 160.898 510.322 160.078C509.59 159.259 509.005 158.469 508.566 157.708C508.156 156.917 507.864 156.171 507.688 155.469C507.542 154.737 507.468 153.991 507.468 153.23C507.468 152.059 507.673 150.991 508.083 150.025C508.522 149.059 509.137 148.225 509.927 147.522C510.717 146.82 511.668 146.279 512.781 145.898C513.893 145.518 515.151 145.327 516.556 145.327C517.405 145.327 518.151 145.371 518.795 145.459C519.468 145.518 520.083 145.62 520.639 145.766C521.049 145.854 521.356 145.913 521.561 145.942C521.795 145.971 522 145.986 522.176 145.986C522.468 145.986 522.615 146.088 522.615 146.293C522.615 146.41 522.585 146.849 522.527 147.61C522.468 148.342 522.439 149.454 522.439 150.947C522.439 151.62 522.337 151.956 522.132 151.956C521.985 151.956 521.898 151.913 521.868 151.825C521.839 151.708 521.81 151.561 521.78 151.386C521.751 151.122 521.678 150.757 521.561 150.288C521.473 149.791 521.356 149.425 521.21 149.191C521.151 149.074 521.019 148.883 520.815 148.62C520.61 148.357 520.288 148.093 519.849 147.83C519.439 147.566 518.898 147.347 518.224 147.171C517.551 146.966 516.717 146.864 515.722 146.864C514.2 146.864 512.912 147.318 511.859 148.225C510.834 149.103 510.322 150.347 510.322 151.956C510.322 152.571 510.395 153.156 510.542 153.713C510.717 154.239 511.01 154.781 511.42 155.337C511.829 155.893 512.371 156.493 513.044 157.137C513.746 157.781 514.624 158.512 515.678 159.332L516.907 160.298C518.195 161.322 519.249 162.273 520.068 163.151C520.917 164.029 521.576 164.878 522.044 165.698C522.541 166.488 522.878 167.293 523.054 168.112C523.229 168.903 523.317 169.737 523.317 170.615C523.317 171.054 523.258 171.581 523.141 172.195C523.054 172.81 522.863 173.454 522.571 174.127C522.307 174.8 521.927 175.473 521.429 176.146C520.961 176.79 520.346 177.376 519.585 177.902C518.649 178.576 517.61 179.044 516.468 179.307C515.327 179.6 514.156 179.746 512.956 179.746Z" fill="#9D783B"/>
<path d="M115.674 28.75C115.966 28.75 116.112 29.042 116.112 29.626C116.112 30.21 115.966 30.502 115.674 30.502C112.268 30.502 109.104 31.816 106.184 34.444C103.264 37.072 100.88 40.868 99.0305 45.832L70.5605 119.854C70.4631 120.243 69.9278 120.438 68.9545 120.438C68.0785 120.438 67.5431 120.243 67.3485 119.854L30.4105 40.868C28.7558 37.364 27.0525 34.7847 25.3005 33.13C23.5485 31.378 21.4071 30.502 18.8765 30.502C18.5845 30.502 18.4385 30.21 18.4385 29.626C18.4385 29.042 18.5845 28.75 18.8765 28.75C20.1418 28.75 21.1638 28.7987 21.9425 28.896C22.8185 28.9933 23.8405 29.0907 25.0085 29.188C26.2738 29.188 27.9285 29.188 29.9725 29.188C34.6445 29.188 38.4405 29.188 41.3605 29.188C44.3778 29.0907 46.8598 28.9933 48.8065 28.896C50.8505 28.7987 52.6511 28.75 54.2085 28.75C54.5005 28.75 54.6465 29.042 54.6465 29.626C54.6465 30.21 54.5005 30.502 54.2085 30.502C50.1205 30.502 47.3465 31.524 45.8865 33.568C44.5238 35.612 44.7671 38.532 46.6165 42.328L74.7945 103.356L68.8085 113.43L95.0885 45.248C96.7432 40.868 96.8405 37.3153 95.3805 34.59C93.9205 31.8647 90.7085 30.502 85.7445 30.502C85.4525 30.502 85.3065 30.21 85.3065 29.626C85.3065 29.042 85.4525 28.75 85.7445 28.75C88.3725 28.75 90.9031 28.8473 93.3365 29.042C95.7698 29.1393 98.9331 29.188 102.826 29.188C105.552 29.188 107.742 29.1393 109.396 29.042C111.148 28.8473 113.241 28.75 115.674 28.75ZM184.602 120H121.238C120.946 120 120.8 119.708 120.8 119.124C120.8 118.54 120.946 118.248 121.238 118.248C124.45 118.248 126.835 118.005 128.392 117.518C129.95 117.031 130.972 116.058 131.458 114.598C132.042 113.138 132.334 110.997 132.334 108.174V40.576C132.334 37.7533 132.042 35.6607 131.458 34.298C130.972 32.838 129.95 31.8647 128.392 31.378C126.835 30.794 124.45 30.502 121.238 30.502C120.946 30.502 120.8 30.21 120.8 29.626C120.8 29.042 120.946 28.75 121.238 28.75H181.974C182.948 28.75 183.434 29.188 183.434 30.064L183.726 49.044C183.726 49.2387 183.483 49.3847 182.996 49.482C182.51 49.482 182.169 49.336 181.974 49.044C180.904 43.496 178.665 39.3593 175.258 36.634C171.852 33.9087 167.374 32.546 161.826 32.546H155.84C153.407 32.546 151.46 32.838 150 33.422C148.638 33.9087 147.664 34.7847 147.08 36.05C146.496 37.218 146.204 38.824 146.204 40.868V107.59C146.204 109.634 146.448 111.337 146.934 112.7C147.518 113.965 148.394 114.89 149.562 115.474C150.73 115.961 152.385 116.204 154.526 116.204H161.68C168.299 116.204 173.652 114.647 177.74 111.532C181.828 108.32 184.748 103.599 186.5 97.37C186.598 97.078 186.89 96.9807 187.376 97.078C187.96 97.1753 188.252 97.3213 188.252 97.516C187.863 100.241 187.522 103.502 187.23 107.298C186.938 111.094 186.792 114.598 186.792 117.81C186.792 119.27 186.062 120 184.602 120ZM176.426 87.004C176.426 82.916 175.064 79.8013 172.338 77.66C169.613 75.5187 165.525 74.448 160.074 74.448H139.634V70.652H160.22C165.671 70.652 169.71 69.7273 172.338 67.878C174.966 66.0287 176.28 63.352 176.28 59.848C176.28 59.556 176.524 59.41 177.01 59.41C177.594 59.41 177.886 59.556 177.886 59.848C177.886 62.9627 177.838 65.396 177.74 67.148C177.74 68.9 177.74 70.7007 177.74 72.55C177.74 74.886 177.789 77.222 177.886 79.558C178.081 81.7967 178.178 84.2787 178.178 87.004C178.178 87.1987 177.886 87.296 177.302 87.296C176.718 87.296 176.426 87.1987 176.426 87.004ZM241.378 120.584C238.361 120.584 234.614 120.438 230.136 120.146C225.659 119.854 221.571 119.708 217.872 119.708C214.368 119.708 211.059 119.757 207.944 119.854C204.83 119.951 202.056 120 199.622 120C199.428 120 199.33 119.708 199.33 119.124C199.33 118.54 199.428 118.248 199.622 118.248C202.737 118.248 205.122 118.005 206.776 117.518C208.431 117.031 209.502 116.058 209.988 114.598C210.572 113.138 210.864 110.997 210.864 108.174V40.576C210.864 37.7533 210.572 35.6607 209.988 34.298C209.502 32.838 208.48 31.8647 206.922 31.378C205.365 30.794 202.98 30.502 199.768 30.502C199.574 30.502 199.476 30.21 199.476 29.626C199.476 29.042 199.574 28.75 199.768 28.75C202.299 28.75 205.073 28.8473 208.09 29.042C211.108 29.1393 214.368 29.188 217.872 29.188C221.279 29.188 224.978 29.0907 228.968 28.896C233.056 28.604 236.512 28.458 239.334 28.458C249.554 28.458 258.46 30.4047 266.052 34.298C273.644 38.1913 279.533 43.496 283.718 50.212C287.904 56.928 289.996 64.4713 289.996 72.842C289.996 80.142 288.731 86.7607 286.2 92.698C283.67 98.538 280.117 103.551 275.542 107.736C271.065 111.824 265.858 114.987 259.92 117.226C254.08 119.465 247.9 120.584 241.378 120.584ZM239.918 117.664C246.634 117.664 252.572 116.058 257.73 112.846C262.889 109.634 266.928 104.962 269.848 98.83C272.866 92.6007 274.374 85.0087 274.374 76.054C274.374 67.6833 273.012 60.14 270.286 53.424C267.561 46.6107 263.668 41.2573 258.606 37.364C253.642 33.3733 247.705 31.378 240.794 31.378C235.052 31.378 230.915 31.9133 228.384 32.984C225.951 34.0547 224.734 36.6827 224.734 40.868V106.568C224.734 110.364 225.708 113.187 227.654 115.036C229.601 116.788 233.689 117.664 239.918 117.664ZM390.993 28.75C391.285 28.75 391.431 29.042 391.431 29.626C391.431 30.21 391.285 30.502 390.993 30.502C387.586 30.502 384.423 31.816 381.503 34.444C378.583 37.072 376.198 40.868 374.349 45.832L345.879 119.854C345.782 120.243 345.246 120.438 344.273 120.438C343.397 120.438 342.862 120.243 342.667 119.854L305.729 40.868C304.074 37.364 302.371 34.7847 300.619 33.13C298.867 31.378 296.726 30.502 294.195 30.502C293.903 30.502 293.757 30.21 293.757 29.626C293.757 29.042 293.903 28.75 294.195 28.75C295.46 28.75 296.482 28.7987 297.261 28.896C298.137 28.9933 299.159 29.0907 300.327 29.188C301.592 29.188 303.247 29.188 305.291 29.188C309.963 29.188 313.759 29.188 316.679 29.188C319.696 29.0907 322.178 28.9933 324.125 28.896C326.169 28.7987 327.97 28.75 329.527 28.75C329.819 28.75 329.965 29.042 329.965 29.626C329.965 30.21 329.819 30.502 329.527 30.502C325.439 30.502 322.665 31.524 321.205 33.568C319.842 35.612 320.086 38.532 321.935 42.328L350.113 103.356L344.127 113.43L370.407 45.248C372.062 40.868 372.159 37.3153 370.699 34.59C369.239 31.8647 366.027 30.502 361.063 30.502C360.771 30.502 360.625 30.21 360.625 29.626C360.625 29.042 360.771 28.75 361.063 28.75C363.691 28.75 366.222 28.8473 368.655 29.042C371.088 29.1393 374.252 29.188 378.145 29.188C380.87 29.188 383.06 29.1393 384.715 29.042C386.467 28.8473 388.56 28.75 390.993 28.75ZM402.729 84.23L404.627 80.58H445.507L446.529 84.23H402.729ZM480.401 118.248C480.79 118.248 480.985 118.54 480.985 119.124C480.985 119.708 480.79 120 480.401 120C477.481 120 474.463 119.903 471.349 119.708C468.331 119.513 465.411 119.416 462.589 119.416C459.377 119.416 456.554 119.513 454.121 119.708C451.785 119.903 449.157 120 446.237 120C445.847 120 445.653 119.708 445.653 119.124C445.653 118.54 445.847 118.248 446.237 118.248C450.617 118.248 453.245 117.469 454.121 115.912C454.997 114.355 454.267 111.289 451.931 106.714L421.417 44.664L427.403 34.882L398.495 99.998C395.964 105.935 395.867 110.461 398.203 113.576C400.636 116.691 404.724 118.248 410.467 118.248C410.953 118.248 411.197 118.54 411.197 119.124C411.197 119.708 410.953 120 410.467 120C407.547 120 404.87 119.903 402.437 119.708C400.003 119.513 396.937 119.416 393.239 119.416C389.54 119.416 386.571 119.513 384.333 119.708C382.191 119.903 379.515 120 376.303 120C375.913 120 375.719 119.708 375.719 119.124C375.719 118.54 375.913 118.248 376.303 118.248C378.931 118.248 381.169 117.713 383.019 116.642C384.965 115.571 386.863 113.625 388.713 110.802C390.562 107.882 392.606 103.843 394.845 98.684L426.235 27.874C426.429 27.582 426.867 27.436 427.549 27.436C428.23 27.436 428.619 27.582 428.717 27.874L464.487 99.998C466.725 104.67 468.721 108.369 470.473 111.094C472.225 113.722 473.879 115.571 475.437 116.642C476.994 117.713 478.649 118.248 480.401 118.248ZM558.94 120C557.48 120 555.046 118.151 551.64 114.452C548.233 110.753 544.096 105.449 539.23 98.538C534.46 91.53 529.107 83.208 523.17 73.572L534.85 70.068C542.734 81.8453 549.45 91.2867 554.998 98.392C560.643 105.4 565.607 110.461 569.89 113.576C574.27 116.691 578.455 118.248 582.446 118.248C582.64 118.248 582.738 118.54 582.738 119.124C582.738 119.708 582.64 120 582.446 120C576.314 120 571.301 120 567.408 120C563.612 120 560.789 120 558.94 120ZM525.798 28.312C534.266 28.312 540.787 30.0153 545.362 33.422C550.034 36.7313 552.37 41.306 552.37 47.146C552.37 52.694 550.764 57.658 547.552 62.038C544.437 66.418 540.349 69.8247 535.288 72.258C530.324 74.6913 524.97 75.908 519.228 75.908C518.06 75.908 516.794 75.908 515.432 75.908C514.069 75.8107 512.852 75.7133 511.782 75.616V108.174C511.782 110.997 512.025 113.138 512.512 114.598C512.998 116.058 514.02 117.031 515.578 117.518C517.232 118.005 519.617 118.248 522.732 118.248C523.024 118.248 523.17 118.54 523.17 119.124C523.17 119.708 523.024 120 522.732 120C520.298 120 517.573 119.951 514.556 119.854C511.538 119.757 508.229 119.708 504.628 119.708C501.221 119.708 497.96 119.757 494.846 119.854C491.731 119.951 488.957 120 486.524 120C486.232 120 486.086 119.708 486.086 119.124C486.086 118.54 486.232 118.248 486.524 118.248C489.736 118.248 492.12 118.005 493.678 117.518C495.235 117.031 496.306 116.058 496.89 114.598C497.474 113.138 497.766 110.997 497.766 108.174V40.576C497.766 37.7533 497.474 35.6607 496.89 34.298C496.403 32.838 495.381 31.8647 493.824 31.378C492.266 30.794 489.882 30.502 486.67 30.502C486.475 30.502 486.378 30.21 486.378 29.626C486.378 29.042 486.475 28.75 486.67 28.75C489.103 28.75 491.828 28.8473 494.846 29.042C497.96 29.1393 501.221 29.188 504.628 29.188C507.742 29.188 511.246 29.042 515.14 28.75C519.033 28.458 522.586 28.312 525.798 28.312ZM537.916 52.256C537.916 46.6107 537.234 42.2793 535.872 39.262C534.606 36.1473 532.806 34.006 530.47 32.838C528.134 31.67 525.408 31.086 522.294 31.086C518.498 31.086 515.772 31.816 514.118 33.276C512.56 34.6387 511.782 37.1693 511.782 40.868V71.674C513.144 71.8687 514.604 72.0147 516.162 72.112C517.719 72.2093 519.082 72.258 520.25 72.258C526.771 72.258 531.346 70.652 533.974 67.44C536.602 64.1307 537.916 59.0693 537.916 52.256ZM618.192 78.974L637.464 47.292C640.578 42.2307 641.746 38.1913 640.968 35.174C640.286 32.0593 637.658 30.502 633.084 30.502C632.889 30.502 632.792 30.21 632.792 29.626C632.792 29.042 632.889 28.75 633.084 28.75C636.101 28.75 638.924 28.8473 641.552 29.042C644.18 29.1393 647.635 29.188 651.918 29.188C654.351 29.188 656.298 29.1393 657.758 29.042C659.315 28.8473 661.164 28.75 663.306 28.75C663.5 28.75 663.598 29.042 663.598 29.626C663.598 30.21 663.5 30.502 663.306 30.502C661.262 30.502 658.926 31.2807 656.298 32.838C653.67 34.298 651.09 36.3907 648.56 39.116C646.029 41.744 643.644 44.8587 641.406 48.46L621.112 81.31L618.192 78.974ZM612.06 80.142L588.554 44.226C585.05 38.8727 582.13 35.2713 579.794 33.422C577.458 31.4753 575.219 30.502 573.078 30.502C572.786 30.502 572.64 30.21 572.64 29.626C572.64 29.042 572.786 28.75 573.078 28.75C574.635 28.75 576.241 28.8473 577.896 29.042C579.55 29.1393 581.108 29.188 582.568 29.188C585.293 29.188 588.067 29.188 590.89 29.188C593.81 29.0907 596.535 28.9933 599.066 28.896C601.694 28.7987 603.884 28.75 605.636 28.75C605.83 28.75 605.928 29.042 605.928 29.626C605.928 30.21 605.83 30.502 605.636 30.502C602.424 30.502 600.477 31.3293 599.796 32.984C599.114 34.6387 599.65 36.7313 601.402 39.262L623.74 73.572L612.06 80.142ZM610.892 74.74L624.762 73.426V108.174C624.762 110.997 625.005 113.138 625.492 114.598C625.978 116.058 627 117.031 628.558 117.518C630.115 118.005 632.5 118.248 635.712 118.248C636.004 118.248 636.15 118.54 636.15 119.124C636.15 119.708 636.004 120 635.712 120C633.278 120 630.553 119.951 627.536 119.854C624.616 119.757 621.355 119.708 617.754 119.708C614.347 119.708 611.038 119.757 607.826 119.854C604.711 119.951 601.937 120 599.504 120C599.309 120 599.212 119.708 599.212 119.124C599.212 118.54 599.309 118.248 599.504 118.248C602.716 118.248 605.1 118.005 606.658 117.518C608.312 117.031 609.432 116.058 610.016 114.598C610.6 113.138 610.892 110.997 610.892 108.174V74.74ZM680.899 84.23L682.797 80.58H723.677L724.699 84.23H680.899ZM758.571 118.248C758.96 118.248 759.155 118.54 759.155 119.124C759.155 119.708 758.96 120 758.571 120C755.651 120 752.633 119.903 749.519 119.708C746.501 119.513 743.581 119.416 740.759 119.416C737.547 119.416 734.724 119.513 732.291 119.708C729.955 119.903 727.327 120 724.407 120C724.017 120 723.823 119.708 723.823 119.124C723.823 118.54 724.017 118.248 724.407 118.248C728.787 118.248 731.415 117.469 732.291 115.912C733.167 114.355 732.437 111.289 730.101 106.714L699.587 44.664L705.573 34.882L676.665 99.998C674.134 105.935 674.037 110.461 676.373 113.576C678.806 116.691 682.894 118.248 688.637 118.248C689.123 118.248 689.367 118.54 689.367 119.124C689.367 119.708 689.123 120 688.637 120C685.717 120 683.04 119.903 680.607 119.708C678.173 119.513 675.107 119.416 671.409 119.416C667.71 119.416 664.741 119.513 662.503 119.708C660.361 119.903 657.685 120 654.473 120C654.083 120 653.889 119.708 653.889 119.124C653.889 118.54 654.083 118.248 654.473 118.248C657.101 118.248 659.339 117.713 661.189 116.642C663.135 115.571 665.033 113.625 666.883 110.802C668.732 107.882 670.776 103.843 673.015 98.684L704.405 27.874C704.599 27.582 705.037 27.436 705.719 27.436C706.4 27.436 706.789 27.582 706.887 27.874L742.657 99.998C744.895 104.67 746.891 108.369 748.643 111.094C750.395 113.722 752.049 115.571 753.607 116.642C755.164 117.713 756.819 118.248 758.571 118.248Z" fill="#CAA45C"/>
</g>
<defs>
<clipPath id="clip0_4_955">
<rect width="785" height="239" fill="white"/>
</clipPath>
</defs>
</svg>
